<svg width="14" height="14" viewBox="0 0 14 14" fill="none" xmlns="http://www.w3.org/2000/svg">
<path d="M6.94315 1.13574C7.97449 1.13574 9.00747 1.42849 9.93043 1.98241C10.5158 2.33463 11.0418 2.77729 11.4887 3.29419L9.94683 3.24333C9.76575 3.23728 9.61409 3.3793 9.60814 3.56048C9.6022 3.74157 9.74411 3.89333 9.9253 3.89917L12.0586 3.96961C12.1812 4.02006 12.322 3.99187 12.4158 3.89804C12.5094 3.80422 12.5374 3.66333 12.4867 3.5408L12.4165 1.40798C12.4124 1.2268 12.2622 1.08324 12.081 1.08724C11.8999 1.09134 11.7561 1.24156 11.7602 1.42265C11.7602 1.42511 11.7602 1.42736 11.7604 1.42972L11.801 2.66019C11.3497 2.17785 10.8338 1.76021 10.2681 1.41947C9.24321 0.804541 8.09344 0.479492 6.94315 0.479492C5.10565 0.479492 3.4115 1.23715 2.17345 2.61282C1.07669 3.83149 0.421875 5.47181 0.421875 7.00077C0.421875 7.18196 0.568711 7.3289 0.75 7.3289C0.931289 7.3289 1.07812 7.18196 1.07812 7.00077C1.07812 5.62952 1.66988 4.15326 2.66123 3.05189C3.77336 1.8164 5.29392 1.13574 6.94315 1.13574Z" fill="#02164F" stroke="#02164F" stroke-width="0.8"/>
<path d="M13.2187 6.67188C13.0374 6.67188 12.8906 6.81871 12.8906 7C12.8906 8.37115 12.2988 9.8475 11.3075 10.949C10.1953 12.1845 8.67476 12.8649 7.02552 12.8649C5.99419 12.8649 4.96121 12.5724 4.03825 12.0185C3.45286 11.6661 2.92683 11.2235 2.47997 10.7067L4.02185 10.7575C4.20293 10.7634 4.35459 10.6214 4.36053 10.4403C4.36648 10.2592 4.22457 10.1075 4.04338 10.1015L1.91005 10.0312C1.78752 9.9807 1.64663 10.009 1.55291 10.1027C1.45929 10.1965 1.4313 10.3373 1.48195 10.4599L1.55219 12.5927C1.55629 12.774 1.70651 12.9176 1.8877 12.9135C2.06878 12.9095 2.21254 12.7593 2.20844 12.5781C2.20844 12.5758 2.20844 12.5735 2.20824 12.571L2.16763 11.3406C2.61901 11.823 3.13488 12.2405 3.70059 12.5814C4.72547 13.1964 5.87524 13.5214 7.02552 13.5214C8.86302 13.5214 10.5572 12.7638 11.7952 11.3882C12.892 10.1694 13.5468 8.52906 13.5468 7C13.5468 6.81871 13.4 6.67188 13.2187 6.67188Z" fill="#02164F" stroke="#02164F" stroke-width="0.8"/>
</svg>
